G04 #@! TF.GenerationSoftware,KiCad,Pcbnew,(6.0.2)*
G04 #@! TF.CreationDate,2022-03-07T19:03:20-08:00*
G04 #@! TF.ProjectId,driver_test,64726976-6572-45f7-9465-73742e6b6963,rev?*
G04 #@! TF.SameCoordinates,Original*
G04 #@! TF.FileFunction,Soldermask,Top*
G04 #@! TF.FilePolarity,Negative*
%FSLAX46Y46*%
G04 Gerber Fmt 4.6, Leading zero omitted, Abs format (unit mm)*
G04 Created by KiCad (PCBNEW (6.0.2)) date 2022-03-07 19:03:20*
%MOMM*%
%LPD*%
G01*
G04 APERTURE LIST*
G04 Aperture macros list*
%AMRoundRect*
0 Rectangle with rounded corners*
0 $1 Rounding radius*
0 $2 $3 $4 $5 $6 $7 $8 $9 X,Y pos of 4 corners*
0 Add a 4 corners polygon primitive as box body*
4,1,4,$2,$3,$4,$5,$6,$7,$8,$9,$2,$3,0*
0 Add four circle primitives for the rounded corners*
1,1,$1+$1,$2,$3*
1,1,$1+$1,$4,$5*
1,1,$1+$1,$6,$7*
1,1,$1+$1,$8,$9*
0 Add four rect primitives between the rounded corners*
20,1,$1+$1,$2,$3,$4,$5,0*
20,1,$1+$1,$4,$5,$6,$7,0*
20,1,$1+$1,$6,$7,$8,$9,0*
20,1,$1+$1,$8,$9,$2,$3,0*%
G04 Aperture macros list end*
%ADD10RoundRect,0.150000X0.825000X0.150000X-0.825000X0.150000X-0.825000X-0.150000X0.825000X-0.150000X0*%
%ADD11RoundRect,0.200000X0.200000X0.275000X-0.200000X0.275000X-0.200000X-0.275000X0.200000X-0.275000X0*%
%ADD12R,0.600000X0.450000*%
%ADD13RoundRect,0.250000X-1.450000X0.312500X-1.450000X-0.312500X1.450000X-0.312500X1.450000X0.312500X0*%
%ADD14RoundRect,0.250000X-0.312500X-1.450000X0.312500X-1.450000X0.312500X1.450000X-0.312500X1.450000X0*%
%ADD15RoundRect,0.200000X-0.275000X0.200000X-0.275000X-0.200000X0.275000X-0.200000X0.275000X0.200000X0*%
%ADD16R,0.450000X0.600000*%
%ADD17RoundRect,0.250000X0.450000X-0.262500X0.450000X0.262500X-0.450000X0.262500X-0.450000X-0.262500X0*%
%ADD18RoundRect,0.150000X0.150000X-0.587500X0.150000X0.587500X-0.150000X0.587500X-0.150000X-0.587500X0*%
%ADD19RoundRect,0.250000X0.550000X0.250000X-0.550000X0.250000X-0.550000X-0.250000X0.550000X-0.250000X0*%
%ADD20RoundRect,0.200000X-0.200000X-0.275000X0.200000X-0.275000X0.200000X0.275000X-0.200000X0.275000X0*%
%ADD21R,1.350000X1.350000*%
%ADD22O,1.350000X1.350000*%
%ADD23RoundRect,0.150000X-0.587500X-0.150000X0.587500X-0.150000X0.587500X0.150000X-0.587500X0.150000X0*%
%ADD24RoundRect,0.200000X0.275000X-0.200000X0.275000X0.200000X-0.275000X0.200000X-0.275000X-0.200000X0*%
%ADD25RoundRect,0.250000X1.450000X-0.312500X1.450000X0.312500X-1.450000X0.312500X-1.450000X-0.312500X0*%
%ADD26RoundRect,0.250000X-0.475000X0.250000X-0.475000X-0.250000X0.475000X-0.250000X0.475000X0.250000X0*%
%ADD27RoundRect,0.218750X0.256250X-0.218750X0.256250X0.218750X-0.256250X0.218750X-0.256250X-0.218750X0*%
%ADD28RoundRect,0.150000X-0.150000X0.587500X-0.150000X-0.587500X0.150000X-0.587500X0.150000X0.587500X0*%
%ADD29R,1.700000X1.700000*%
%ADD30O,1.700000X1.700000*%
%ADD31RoundRect,0.150000X0.587500X0.150000X-0.587500X0.150000X-0.587500X-0.150000X0.587500X-0.150000X0*%
%ADD32RoundRect,0.250000X-0.262500X-0.450000X0.262500X-0.450000X0.262500X0.450000X-0.262500X0.450000X0*%
%ADD33RoundRect,0.225000X0.225000X0.250000X-0.225000X0.250000X-0.225000X-0.250000X0.225000X-0.250000X0*%
%ADD34RoundRect,0.225000X-0.250000X0.225000X-0.250000X-0.225000X0.250000X-0.225000X0.250000X0.225000X0*%
%ADD35RoundRect,0.150000X-0.512500X-0.150000X0.512500X-0.150000X0.512500X0.150000X-0.512500X0.150000X0*%
%ADD36RoundRect,0.100000X0.637500X0.100000X-0.637500X0.100000X-0.637500X-0.100000X0.637500X-0.100000X0*%
%ADD37RoundRect,0.100000X-0.100000X0.625000X-0.100000X-0.625000X0.100000X-0.625000X0.100000X0.625000X0*%
%ADD38RoundRect,0.218750X0.218750X0.256250X-0.218750X0.256250X-0.218750X-0.256250X0.218750X-0.256250X0*%
%ADD39RoundRect,0.250000X-0.312500X-0.625000X0.312500X-0.625000X0.312500X0.625000X-0.312500X0.625000X0*%
%ADD40O,1.500000X2.500000*%
%ADD41RoundRect,0.250000X-1.025000X0.787500X-1.025000X-0.787500X1.025000X-0.787500X1.025000X0.787500X0*%
%ADD42R,1.600000X1.600000*%
%ADD43O,1.600000X1.600000*%
%ADD44RoundRect,0.225000X-0.225000X-0.250000X0.225000X-0.250000X0.225000X0.250000X-0.225000X0.250000X0*%
%ADD45C,3.810000*%
%ADD46RoundRect,0.225000X0.250000X-0.225000X0.250000X0.225000X-0.250000X0.225000X-0.250000X-0.225000X0*%
%ADD47RoundRect,0.218750X-0.218750X-0.256250X0.218750X-0.256250X0.218750X0.256250X-0.218750X0.256250X0*%
%ADD48RoundRect,0.250000X0.412500X0.925000X-0.412500X0.925000X-0.412500X-0.925000X0.412500X-0.925000X0*%
%ADD49R,3.500000X4.000000*%
%ADD50RoundRect,0.750000X-0.750000X-1.000000X0.750000X-1.000000X0.750000X1.000000X-0.750000X1.000000X0*%
%ADD51RoundRect,0.875000X-0.875000X-0.875000X0.875000X-0.875000X0.875000X0.875000X-0.875000X0.875000X0*%
%ADD52RoundRect,0.250000X0.475000X-0.250000X0.475000X0.250000X-0.475000X0.250000X-0.475000X-0.250000X0*%
%ADD53C,2.850000*%
%ADD54RoundRect,0.249999X-0.525001X0.525001X-0.525001X-0.525001X0.525001X-0.525001X0.525001X0.525001X0*%
%ADD55C,1.550000*%
%ADD56RoundRect,0.250000X0.787500X1.025000X-0.787500X1.025000X-0.787500X-1.025000X0.787500X-1.025000X0*%
%ADD57RoundRect,0.150000X0.875000X0.150000X-0.875000X0.150000X-0.875000X-0.150000X0.875000X-0.150000X0*%
%ADD58RoundRect,0.250000X-0.250000X-0.475000X0.250000X-0.475000X0.250000X0.475000X-0.250000X0.475000X0*%
%ADD59RoundRect,0.250000X0.262500X0.450000X-0.262500X0.450000X-0.262500X-0.450000X0.262500X-0.450000X0*%
G04 APERTURE END LIST*
D10*
X61174500Y-40360500D03*
X61174500Y-39090500D03*
X61174500Y-37820500D03*
X61174500Y-36550500D03*
X56224500Y-36550500D03*
X56224500Y-37820500D03*
X56224500Y-39090500D03*
X56224500Y-40360500D03*
D11*
X186372000Y-72390000D03*
X184722000Y-72390000D03*
X165544000Y-50038000D03*
X163894000Y-50038000D03*
D12*
X189069000Y-94107000D03*
X191169000Y-94107000D03*
D13*
X181864000Y-49170500D03*
X181864000Y-53445500D03*
D14*
X227627000Y-96901000D03*
X231902000Y-96901000D03*
D15*
X236855000Y-107570000D03*
X236855000Y-109220000D03*
D11*
X168719000Y-87757000D03*
X167069000Y-87757000D03*
D16*
X197358000Y-46008000D03*
X197358000Y-43908000D03*
D13*
X152019000Y-90064500D03*
X152019000Y-94339500D03*
D17*
X194056000Y-124102500D03*
X194056000Y-122277500D03*
D18*
X192598000Y-42720500D03*
X194498000Y-42720500D03*
X193548000Y-40845500D03*
D19*
X234350000Y-112840000D03*
X234350000Y-110300000D03*
X234350000Y-107760000D03*
X222850000Y-112840000D03*
X222850000Y-110300000D03*
X222850000Y-107760000D03*
D12*
X235492000Y-87249000D03*
X233392000Y-87249000D03*
D13*
X177419000Y-49170500D03*
X177419000Y-53445500D03*
D12*
X172627000Y-66040000D03*
X170527000Y-66040000D03*
D15*
X52705000Y-112967000D03*
X52705000Y-114617000D03*
D20*
X182944000Y-85217000D03*
X184594000Y-85217000D03*
D21*
X233934000Y-53340000D03*
D22*
X233934000Y-51340000D03*
D23*
X180926500Y-40198000D03*
X180926500Y-42098000D03*
X182801500Y-41148000D03*
D18*
X166182000Y-70152500D03*
X168082000Y-70152500D03*
X167132000Y-68277500D03*
D11*
X207264000Y-74930000D03*
X205614000Y-74930000D03*
D15*
X127254000Y-81725000D03*
X127254000Y-83375000D03*
D13*
X206248000Y-49170500D03*
X206248000Y-53445500D03*
D16*
X172974000Y-42198000D03*
X172974000Y-40098000D03*
D24*
X220345000Y-123190000D03*
X220345000Y-121540000D03*
D12*
X182152000Y-72390000D03*
X180052000Y-72390000D03*
D20*
X157544000Y-84582000D03*
X159194000Y-84582000D03*
D13*
X183769000Y-90064500D03*
X183769000Y-94339500D03*
D24*
X167640000Y-53403000D03*
X167640000Y-51753000D03*
D25*
X224409000Y-50646000D03*
X224409000Y-46371000D03*
D12*
X196118000Y-68326000D03*
X198218000Y-68326000D03*
D26*
X196596000Y-122240000D03*
X196596000Y-124140000D03*
D27*
X224684500Y-97434500D03*
X224684500Y-95859500D03*
D11*
X184594000Y-87757000D03*
X182944000Y-87757000D03*
D20*
X130493000Y-87757000D03*
X132143000Y-87757000D03*
D28*
X211516000Y-98630500D03*
X209616000Y-98630500D03*
X210566000Y-100505500D03*
X159319000Y-86819500D03*
X157419000Y-86819500D03*
X158369000Y-88694500D03*
D24*
X220345000Y-109220000D03*
X220345000Y-107570000D03*
D11*
X193548000Y-75184000D03*
X191898000Y-75184000D03*
D29*
X88265000Y-109855000D03*
D30*
X85725000Y-109855000D03*
X83185000Y-109855000D03*
X80645000Y-109855000D03*
X78105000Y-109855000D03*
X75565000Y-109855000D03*
X73025000Y-109855000D03*
X70485000Y-109855000D03*
X67945000Y-109855000D03*
X65405000Y-109855000D03*
X62865000Y-109855000D03*
X60325000Y-109855000D03*
X57785000Y-109855000D03*
X55245000Y-109855000D03*
X52705000Y-109855000D03*
X50165000Y-109855000D03*
X47625000Y-109855000D03*
X45085000Y-109855000D03*
X42545000Y-109855000D03*
X40005000Y-109855000D03*
X37465000Y-109855000D03*
X34925000Y-109855000D03*
X32385000Y-109855000D03*
X29845000Y-109855000D03*
D12*
X194598000Y-47244000D03*
X192498000Y-47244000D03*
D11*
X207073000Y-46863000D03*
X205423000Y-46863000D03*
D18*
X170627000Y-70152500D03*
X172527000Y-70152500D03*
X171577000Y-68277500D03*
D11*
X200469000Y-87757000D03*
X198819000Y-87757000D03*
D12*
X195614000Y-94107000D03*
X193514000Y-94107000D03*
D11*
X193675000Y-66040000D03*
X192025000Y-66040000D03*
D31*
X131493500Y-83627000D03*
X131493500Y-81727000D03*
X129618500Y-82677000D03*
D24*
X163703000Y-72453000D03*
X163703000Y-70803000D03*
D11*
X136207000Y-85852000D03*
X134557000Y-85852000D03*
X152844000Y-87757000D03*
X151194000Y-87757000D03*
D12*
X234984000Y-45990000D03*
X232884000Y-45990000D03*
D20*
X205614000Y-72390000D03*
X207264000Y-72390000D03*
D13*
X201803000Y-49170500D03*
X201803000Y-53445500D03*
D29*
X29845000Y-125095000D03*
D30*
X32385000Y-125095000D03*
X34925000Y-125095000D03*
X37465000Y-125095000D03*
X40005000Y-125095000D03*
X42545000Y-125095000D03*
X45085000Y-125095000D03*
X47625000Y-125095000D03*
X50165000Y-125095000D03*
X52705000Y-125095000D03*
X55245000Y-125095000D03*
X57785000Y-125095000D03*
X60325000Y-125095000D03*
X62865000Y-125095000D03*
X65405000Y-125095000D03*
X67945000Y-125095000D03*
X70485000Y-125095000D03*
X73025000Y-125095000D03*
X75565000Y-125095000D03*
X78105000Y-125095000D03*
X80645000Y-125095000D03*
X83185000Y-125095000D03*
X85725000Y-125095000D03*
X88265000Y-125095000D03*
D32*
X205335500Y-44323000D03*
X207160500Y-44323000D03*
D11*
X202565000Y-66548000D03*
X200915000Y-66548000D03*
D12*
X163864000Y-89027000D03*
X161764000Y-89027000D03*
D21*
X233900000Y-42402000D03*
D22*
X233900000Y-40402000D03*
D33*
X221120000Y-105601000D03*
X219570000Y-105601000D03*
D34*
X35941000Y-113779000D03*
X35941000Y-115329000D03*
D35*
X31628500Y-113604000D03*
X31628500Y-114554000D03*
X31628500Y-115504000D03*
X33903500Y-115504000D03*
X33903500Y-113604000D03*
D36*
X98264900Y-121289000D03*
X98264900Y-120639000D03*
X98264900Y-119989000D03*
X98264900Y-119339000D03*
X98264900Y-118689000D03*
X98264900Y-118039000D03*
X98264900Y-117389000D03*
X98264900Y-116739000D03*
X98264900Y-116089000D03*
X98264900Y-115439000D03*
X92539900Y-115439000D03*
X92539900Y-116089000D03*
X92539900Y-116739000D03*
X92539900Y-117389000D03*
X92539900Y-118039000D03*
X92539900Y-118689000D03*
X92539900Y-119339000D03*
X92539900Y-119989000D03*
X92539900Y-120639000D03*
X92539900Y-121289000D03*
D18*
X193614000Y-86789500D03*
X195514000Y-86789500D03*
X194564000Y-84914500D03*
D34*
X206248000Y-123685000D03*
X206248000Y-125235000D03*
D20*
X192914000Y-118364000D03*
X194564000Y-118364000D03*
D28*
X175194000Y-86819500D03*
X173294000Y-86819500D03*
X174244000Y-88694500D03*
D12*
X179739000Y-94107000D03*
X177639000Y-94107000D03*
X186597000Y-66040000D03*
X184497000Y-66040000D03*
D16*
X172974000Y-49818000D03*
X172974000Y-47718000D03*
D15*
X60223500Y-42202500D03*
X60223500Y-43852500D03*
D37*
X52095500Y-41639500D03*
X51445500Y-41639500D03*
X50795500Y-41639500D03*
X50145500Y-41639500D03*
X49495500Y-41639500D03*
X48845500Y-41639500D03*
X48845500Y-45939500D03*
X49495500Y-45939500D03*
X50145500Y-45939500D03*
X50795500Y-45939500D03*
X51445500Y-45939500D03*
X52095500Y-45939500D03*
D20*
X167069000Y-85217000D03*
X168719000Y-85217000D03*
D11*
X167957000Y-66040000D03*
X166307000Y-66040000D03*
D23*
X176481500Y-40198000D03*
X176481500Y-42098000D03*
X178356500Y-41148000D03*
D31*
X128191500Y-87818000D03*
X128191500Y-85918000D03*
X126316500Y-86868000D03*
D12*
X141444000Y-94107000D03*
X143544000Y-94107000D03*
D32*
X200890500Y-44323000D03*
X202715500Y-44323000D03*
D11*
X182689000Y-46863000D03*
X181039000Y-46863000D03*
D38*
X224815500Y-92307500D03*
X223240500Y-92307500D03*
D39*
X50328800Y-38455500D03*
X53253800Y-38455500D03*
D12*
X193514000Y-91567000D03*
X195614000Y-91567000D03*
D40*
X163984000Y-122965500D03*
X166524000Y-122965500D03*
X181764000Y-122965500D03*
X186844000Y-122965500D03*
X186844000Y-107725500D03*
X181764000Y-107725500D03*
X166524000Y-107725500D03*
X163984000Y-107725500D03*
D41*
X229362000Y-85385000D03*
X229362000Y-91610000D03*
D42*
X216525000Y-124280000D03*
D43*
X216525000Y-121740000D03*
X216525000Y-119200000D03*
X216525000Y-116660000D03*
X216525000Y-114120000D03*
X216525000Y-111580000D03*
X216525000Y-109040000D03*
X216525000Y-106500000D03*
X208905000Y-106500000D03*
X208905000Y-109040000D03*
X208905000Y-111580000D03*
X208905000Y-114120000D03*
X208905000Y-116660000D03*
X208905000Y-119200000D03*
X208905000Y-121740000D03*
X208905000Y-124280000D03*
D20*
X196343000Y-75184000D03*
X197993000Y-75184000D03*
D12*
X173194000Y-94107000D03*
X175294000Y-94107000D03*
D20*
X205614000Y-66040000D03*
X207264000Y-66040000D03*
D12*
X234950000Y-35052000D03*
X232850000Y-35052000D03*
D18*
X184597000Y-70152500D03*
X186497000Y-70152500D03*
X185547000Y-68277500D03*
D24*
X169799000Y-53403000D03*
X169799000Y-51753000D03*
D44*
X50812500Y-48361500D03*
X52362500Y-48361500D03*
D11*
X175069000Y-90932000D03*
X173419000Y-90932000D03*
X197993000Y-66040000D03*
X196343000Y-66040000D03*
X55714500Y-42519500D03*
X54064500Y-42519500D03*
D19*
X234350000Y-123000000D03*
X234350000Y-120460000D03*
X234350000Y-117920000D03*
X222850000Y-123000000D03*
X222850000Y-120460000D03*
X222850000Y-117920000D03*
D12*
X235492000Y-89789000D03*
X233392000Y-89789000D03*
D11*
X132143000Y-85852000D03*
X130493000Y-85852000D03*
D20*
X141669000Y-84582000D03*
X143319000Y-84582000D03*
D34*
X71423000Y-102476000D03*
X71423000Y-104026000D03*
D18*
X180152000Y-70152500D03*
X182052000Y-70152500D03*
X181102000Y-68277500D03*
D33*
X221120000Y-125159000D03*
X219570000Y-125159000D03*
D45*
X58166000Y-28257500D03*
D23*
X200865500Y-40198000D03*
X200865500Y-42098000D03*
X202740500Y-41148000D03*
D12*
X202790000Y-74168000D03*
X200690000Y-74168000D03*
D15*
X216281000Y-98426000D03*
X216281000Y-100076000D03*
D25*
X149606000Y-54694000D03*
X149606000Y-50419000D03*
D38*
X150139500Y-57636500D03*
X148564500Y-57636500D03*
D12*
X168114000Y-44958000D03*
X170214000Y-44958000D03*
D11*
X32575000Y-106680000D03*
X30925000Y-106680000D03*
D12*
X179739000Y-89027000D03*
X177639000Y-89027000D03*
X202790000Y-69088000D03*
X200690000Y-69088000D03*
D15*
X50165000Y-112967000D03*
X50165000Y-114617000D03*
D32*
X176506500Y-44323000D03*
X178331500Y-44323000D03*
D18*
X161864000Y-86789500D03*
X163764000Y-86789500D03*
X162814000Y-84914500D03*
D16*
X197358000Y-42198000D03*
X197358000Y-40098000D03*
D33*
X93840600Y-122885200D03*
X92290600Y-122885200D03*
D38*
X224908500Y-42607500D03*
X223333500Y-42607500D03*
D11*
X172402000Y-72390000D03*
X170752000Y-72390000D03*
D20*
X189294000Y-84582000D03*
X190944000Y-84582000D03*
D38*
X152425500Y-72706500D03*
X150850500Y-72706500D03*
D25*
X224282000Y-89365000D03*
X224282000Y-85090000D03*
D41*
X229455000Y-35685000D03*
X229455000Y-41910000D03*
D12*
X157319000Y-94107000D03*
X159419000Y-94107000D03*
D11*
X202628000Y-46863000D03*
X200978000Y-46863000D03*
D45*
X157226000Y-28257500D03*
D12*
X147989000Y-94107000D03*
X145889000Y-94107000D03*
D38*
X194526500Y-116459000D03*
X192951500Y-116459000D03*
D11*
X165544000Y-43434000D03*
X163894000Y-43434000D03*
D46*
X220345000Y-116155000D03*
X220345000Y-114605000D03*
D11*
X46570500Y-40995500D03*
X44920500Y-40995500D03*
D46*
X29591000Y-114897200D03*
X29591000Y-113347200D03*
D12*
X168114000Y-49403000D03*
X170214000Y-49403000D03*
D11*
X165544000Y-41148000D03*
X163894000Y-41148000D03*
D28*
X191069000Y-86819500D03*
X189169000Y-86819500D03*
X190119000Y-88694500D03*
D12*
X170214000Y-47244000D03*
X168114000Y-47244000D03*
D24*
X220345000Y-113030000D03*
X220345000Y-111380000D03*
D18*
X177739000Y-86789500D03*
X179639000Y-86789500D03*
X178689000Y-84914500D03*
D47*
X192951500Y-109093000D03*
X194526500Y-109093000D03*
D24*
X177673000Y-72453000D03*
X177673000Y-70803000D03*
D28*
X143444000Y-86819500D03*
X141544000Y-86819500D03*
X142494000Y-88694500D03*
D12*
X235492000Y-84709000D03*
X233392000Y-84709000D03*
D45*
X107696000Y-133286500D03*
D15*
X163703000Y-66993000D03*
X163703000Y-68643000D03*
D13*
X199644000Y-90064500D03*
X199644000Y-94339500D03*
D48*
X155194000Y-44196000D03*
X152119000Y-44196000D03*
D23*
X205501500Y-68265000D03*
X205501500Y-70165000D03*
X207376500Y-69215000D03*
D45*
X107696000Y-28257500D03*
D15*
X236855000Y-121540000D03*
X236855000Y-123190000D03*
D18*
X145989000Y-86789500D03*
X147889000Y-86789500D03*
X146939000Y-84914500D03*
D27*
X62255500Y-43815000D03*
X62255500Y-42240000D03*
D12*
X147989000Y-89027000D03*
X145889000Y-89027000D03*
D13*
X167894000Y-90064500D03*
X167894000Y-94339500D03*
D12*
X168182000Y-72390000D03*
X166082000Y-72390000D03*
D18*
X134432000Y-83614500D03*
X136332000Y-83614500D03*
X135382000Y-81739500D03*
D11*
X46570500Y-42773500D03*
X44920500Y-42773500D03*
D49*
X40284500Y-38455500D03*
D50*
X34284500Y-38455500D03*
D51*
X37284500Y-43155500D03*
D12*
X145889000Y-91567000D03*
X147989000Y-91567000D03*
D16*
X172974000Y-53628000D03*
X172974000Y-51528000D03*
D12*
X235492000Y-92329000D03*
X233392000Y-92329000D03*
X192498000Y-44958000D03*
X194598000Y-44958000D03*
D34*
X214249000Y-98476000D03*
X214249000Y-100026000D03*
D11*
X46570500Y-44551500D03*
X44920500Y-44551500D03*
D12*
X161764000Y-91567000D03*
X163864000Y-91567000D03*
D11*
X189928000Y-41148000D03*
X188278000Y-41148000D03*
D45*
X58166000Y-133286500D03*
D35*
X96531000Y-104968000D03*
X96531000Y-105918000D03*
X96531000Y-106868000D03*
X98806000Y-106868000D03*
X98806000Y-105918000D03*
X98806000Y-104968000D03*
D28*
X166050000Y-45798500D03*
X164150000Y-45798500D03*
X165100000Y-47673500D03*
D20*
X151194000Y-85217000D03*
X152844000Y-85217000D03*
X233075000Y-37592000D03*
X234725000Y-37592000D03*
D23*
X205310500Y-40198000D03*
X205310500Y-42098000D03*
X207185500Y-41148000D03*
D24*
X220345000Y-119380000D03*
X220345000Y-117730000D03*
D41*
X156972000Y-65784000D03*
X156972000Y-72009000D03*
D15*
X177673000Y-66993000D03*
X177673000Y-68643000D03*
X236855000Y-117730000D03*
X236855000Y-119380000D03*
D52*
X207010000Y-101026000D03*
X207010000Y-99126000D03*
D11*
X215709000Y-102426000D03*
X214059000Y-102426000D03*
D20*
X198819000Y-85217000D03*
X200469000Y-85217000D03*
D12*
X192498000Y-49403000D03*
X194598000Y-49403000D03*
D41*
X229489000Y-46666000D03*
X229489000Y-52891000D03*
D24*
X192024000Y-53403000D03*
X192024000Y-51753000D03*
D28*
X193673000Y-70944500D03*
X191773000Y-70944500D03*
X192723000Y-72819500D03*
D53*
X251174600Y-36322000D03*
X251174600Y-125222000D03*
D54*
X248634600Y-41402000D03*
D55*
X248634600Y-43942000D03*
X248634600Y-46482000D03*
X248634600Y-49022000D03*
X248634600Y-51562000D03*
X248634600Y-54102000D03*
X248634600Y-56642000D03*
X248634600Y-59182000D03*
X248634600Y-61722000D03*
X248634600Y-64262000D03*
X248634600Y-66802000D03*
X248634600Y-69342000D03*
X248634600Y-71882000D03*
X248634600Y-74422000D03*
X248634600Y-76962000D03*
X248634600Y-79502000D03*
X248634600Y-82042000D03*
X248634600Y-84582000D03*
X248634600Y-87122000D03*
X248634600Y-89662000D03*
X248634600Y-92202000D03*
X248634600Y-94742000D03*
X248634600Y-97282000D03*
X248634600Y-99822000D03*
X248634600Y-102362000D03*
X248634600Y-104902000D03*
X248634600Y-107442000D03*
X248634600Y-109982000D03*
X248634600Y-112522000D03*
X248634600Y-115062000D03*
X248634600Y-117602000D03*
X248634600Y-120142000D03*
X246094600Y-41402000D03*
X246094600Y-43942000D03*
X246094600Y-46482000D03*
X246094600Y-49022000D03*
X246094600Y-51562000D03*
X246094600Y-54102000D03*
X246094600Y-56642000D03*
X246094600Y-59182000D03*
X246094600Y-61722000D03*
X246094600Y-64262000D03*
X246094600Y-66802000D03*
X246094600Y-69342000D03*
X246094600Y-71882000D03*
X246094600Y-74422000D03*
X246094600Y-76962000D03*
X246094600Y-79502000D03*
X246094600Y-82042000D03*
X246094600Y-84582000D03*
X246094600Y-87122000D03*
X246094600Y-89662000D03*
X246094600Y-92202000D03*
X246094600Y-94742000D03*
X246094600Y-97282000D03*
X246094600Y-99822000D03*
X246094600Y-102362000D03*
X246094600Y-104902000D03*
X246094600Y-107442000D03*
X246094600Y-109982000D03*
X246094600Y-112522000D03*
X246094600Y-115062000D03*
X246094600Y-117602000D03*
X246094600Y-120142000D03*
X243554600Y-41402000D03*
X243554600Y-43942000D03*
X243554600Y-46482000D03*
X243554600Y-49022000D03*
X243554600Y-51562000D03*
X243554600Y-54102000D03*
X243554600Y-56642000D03*
X243554600Y-59182000D03*
X243554600Y-61722000D03*
X243554600Y-64262000D03*
X243554600Y-66802000D03*
X243554600Y-69342000D03*
X243554600Y-71882000D03*
X243554600Y-74422000D03*
X243554600Y-76962000D03*
X243554600Y-79502000D03*
X243554600Y-82042000D03*
X243554600Y-84582000D03*
X243554600Y-87122000D03*
X243554600Y-89662000D03*
X243554600Y-92202000D03*
X243554600Y-94742000D03*
X243554600Y-97282000D03*
X243554600Y-99822000D03*
X243554600Y-102362000D03*
X243554600Y-104902000D03*
X243554600Y-107442000D03*
X243554600Y-109982000D03*
X243554600Y-112522000D03*
X243554600Y-115062000D03*
X243554600Y-117602000D03*
X243554600Y-120142000D03*
D11*
X36385000Y-106680000D03*
X34735000Y-106680000D03*
X189928000Y-43434000D03*
X188278000Y-43434000D03*
D41*
X154686000Y-50714000D03*
X154686000Y-56939000D03*
D11*
X189928000Y-50038000D03*
X188278000Y-50038000D03*
D20*
X173419000Y-84582000D03*
X175069000Y-84582000D03*
D56*
X231607000Y-101981000D03*
X225382000Y-101981000D03*
D11*
X46570500Y-46329500D03*
X44920500Y-46329500D03*
X143319000Y-90932000D03*
X141669000Y-90932000D03*
D33*
X55664500Y-46329500D03*
X54114500Y-46329500D03*
D24*
X155666500Y-41496000D03*
X155666500Y-39846000D03*
D15*
X236855000Y-111380000D03*
X236855000Y-113030000D03*
D25*
X224375000Y-39665000D03*
X224375000Y-35390000D03*
D12*
X193773000Y-68326000D03*
X191673000Y-68326000D03*
X151695500Y-40163000D03*
X153795500Y-40163000D03*
D16*
X197358000Y-53628000D03*
X197358000Y-51528000D03*
D12*
X163864000Y-94107000D03*
X161764000Y-94107000D03*
D57*
X83058000Y-103886000D03*
X83058000Y-102616000D03*
X83058000Y-101346000D03*
X83058000Y-100076000D03*
X83058000Y-98806000D03*
X83058000Y-97536000D03*
X83058000Y-96266000D03*
X83058000Y-94996000D03*
X83058000Y-93726000D03*
X83058000Y-92456000D03*
X83058000Y-91186000D03*
X83058000Y-89916000D03*
X73758000Y-89916000D03*
X73758000Y-91186000D03*
X73758000Y-92456000D03*
X73758000Y-93726000D03*
X73758000Y-94996000D03*
X73758000Y-96266000D03*
X73758000Y-97536000D03*
X73758000Y-98806000D03*
X73758000Y-100076000D03*
X73758000Y-101346000D03*
X73758000Y-102616000D03*
X73758000Y-103886000D03*
D18*
X196218000Y-72755500D03*
X198118000Y-72755500D03*
X197168000Y-70880500D03*
X168214000Y-42720500D03*
X170114000Y-42720500D03*
X169164000Y-40845500D03*
D12*
X195614000Y-89027000D03*
X193514000Y-89027000D03*
D32*
X180951500Y-44323000D03*
X182776500Y-44323000D03*
D11*
X178244000Y-46863000D03*
X176594000Y-46863000D03*
D28*
X190434000Y-45798500D03*
X188534000Y-45798500D03*
X189484000Y-47673500D03*
D20*
X134557000Y-87757000D03*
X136207000Y-87757000D03*
D58*
X190566000Y-102362000D03*
X192466000Y-102362000D03*
D11*
X55714500Y-44424500D03*
X54064500Y-44424500D03*
D25*
X151892000Y-69764000D03*
X151892000Y-65489000D03*
D24*
X194183000Y-53403000D03*
X194183000Y-51753000D03*
D11*
X159194000Y-90932000D03*
X157544000Y-90932000D03*
D38*
X224942500Y-53588500D03*
X223367500Y-53588500D03*
D20*
X233109000Y-48530000D03*
X234759000Y-48530000D03*
D11*
X181927000Y-66040000D03*
X180277000Y-66040000D03*
D20*
X192914000Y-107188000D03*
X194564000Y-107188000D03*
D12*
X177639000Y-91567000D03*
X179739000Y-91567000D03*
X200690000Y-71628000D03*
X202790000Y-71628000D03*
D16*
X172974000Y-46008000D03*
X172974000Y-43908000D03*
D59*
X188618500Y-102362000D03*
X186793500Y-102362000D03*
D33*
X98443500Y-103251000D03*
X96893500Y-103251000D03*
D16*
X197358000Y-49818000D03*
X197358000Y-47718000D03*
D11*
X190944000Y-90932000D03*
X189294000Y-90932000D03*
D45*
X157226000Y-133286500D03*
M02*
