M48
INCH,TZ
T1C0.0157
T2C0.0315
T3C0.0358
T4C0.0394
T5C0.0960
%
G90
G05
T1
X11650Y-46000
X11750Y-42000
X12450Y-45850
X13050Y-46000
X14300Y-42500
X14700Y-44400
X14700Y-44850
X14700Y-45400
X18800Y-18700
X19360Y-18590
X19890Y-15860
X20910Y-18240
X21010Y-19040
X21200Y-45100
X24910Y-14940
X24910Y-15390
X24910Y-15840
X25010Y-17240
X27669Y-40350
X27669Y-40950
X33300Y-35400
X33400Y-40900
X35880Y-47660
X36360Y-48840
X36952Y-41350
X36952Y-42050
X36960Y-48860
X37452Y-41700
X37752Y-40650
X38700Y-45100
X38752Y-40150
X39700Y-46700
X39700Y-47500
X43100Y-30900
X48600Y-29800
X49600Y-33800
X53300Y-31500
X53900Y-37100
X54100Y-34700
X55000Y-34200
X55100Y-33300
X56100Y-36450
X57500Y-19900
X58100Y-22750
X59000Y-28650
X59400Y-17400
X60600Y-18400
X60800Y-28400
X60900Y-23100
X61300Y-34200
X61400Y-33300
X61700Y-15400
X61800Y-20000
X62350Y-36450
X63800Y-18100
X64350Y-15700
X65000Y-21050
X66750Y-28800
X67000Y-38000
X67600Y-21200
X67600Y-34200
X67700Y-33300
X68600Y-36450
X69000Y-27800
X69850Y-21700
X71600Y-21700
X72250Y-28800
X73400Y-18100
X73900Y-33300
X73900Y-34200
X73950Y-15700
X74450Y-21050
X74500Y-28500
X74850Y-36450
X75975Y-43500
X75975Y-45300
X76200Y-40300
X76608Y-26483
X77200Y-21200
X77400Y-49400
X77900Y-48100
X78625Y-26500
X79450Y-21700
X80225Y-28700
X80300Y-29700
X80650Y-49300
X81200Y-21700
X81500Y-40200
X82500Y-38300
X83850Y-40475
X86750Y-43425
X86750Y-47425
X87050Y-36300
X87137Y-16794
X87150Y-21100
X87650Y-41575
X87650Y-49275
X87800Y-37700
X87850Y-40150
X89200Y-21000
X89400Y-16600
X89400Y-36200
X92300Y-40150
X93250Y-43425
X93250Y-47425
T2
X82246Y-41929
X82246Y-42929
X82246Y-43929
X82246Y-44929
X82246Y-45929
X82246Y-46929
X82246Y-47929
X82246Y-48929
X85246Y-41929
X85246Y-42929
X85246Y-43929
X85246Y-44929
X85246Y-45929
X85246Y-46929
X85246Y-47929
X85246Y-48929
X92087Y-15906
X92087Y-16694
X92100Y-20213
X92100Y-21000
T3
X64561Y-42412
X64561Y-48412
X65561Y-42412
X65561Y-48412
X71561Y-42412
X71561Y-48412
X73561Y-42412
X73561Y-48412
T4
X11750Y-43250
X11750Y-49250
X12750Y-43250
X12750Y-49250
X13750Y-43250
X13750Y-49250
X14750Y-43250
X14750Y-49250
X15750Y-43250
X15750Y-49250
X16750Y-43250
X16750Y-49250
X17750Y-43250
X17750Y-49250
X18750Y-43250
X18750Y-49250
X19750Y-43250
X19750Y-49250
X20750Y-43250
X20750Y-49250
X21750Y-43250
X21750Y-49250
X22750Y-43250
X22750Y-49250
X23750Y-43250
X23750Y-49250
X24750Y-43250
X24750Y-49250
X25750Y-43250
X25750Y-49250
X26750Y-43250
X26750Y-49250
X27750Y-43250
X27750Y-49250
X28750Y-43250
X28750Y-49250
X29750Y-43250
X29750Y-49250
X30750Y-43250
X30750Y-49250
X31750Y-43250
X31750Y-49250
X32750Y-43250
X32750Y-49250
X33750Y-43250
X33750Y-49250
X34750Y-43250
X34750Y-49250
X95888Y-16300
X95888Y-17300
X95888Y-18300
X95888Y-19300
X95888Y-20300
X95888Y-21300
X95888Y-22300
X95888Y-23300
X95888Y-24300
X95888Y-25300
X95888Y-26300
X95888Y-27300
X95888Y-28300
X95888Y-29300
X95888Y-30300
X95888Y-31300
X95888Y-32300
X95888Y-33300
X95888Y-34300
X95888Y-35300
X95888Y-36300
X95888Y-37300
X95888Y-38300
X95888Y-39300
X95888Y-40300
X95888Y-41300
X95888Y-42300
X95888Y-43300
X95888Y-44300
X95888Y-45300
X95888Y-46300
X95888Y-47300
X96888Y-16300
X96888Y-17300
X96888Y-18300
X96888Y-19300
X96888Y-20300
X96888Y-21300
X96888Y-22300
X96888Y-23300
X96888Y-24300
X96888Y-25300
X96888Y-26300
X96888Y-27300
X96888Y-28300
X96888Y-29300
X96888Y-30300
X96888Y-31300
X96888Y-32300
X96888Y-33300
X96888Y-34300
X96888Y-35300
X96888Y-36300
X96888Y-37300
X96888Y-38300
X96888Y-39300
X96888Y-40300
X96888Y-41300
X96888Y-42300
X96888Y-43300
X96888Y-44300
X96888Y-45300
X96888Y-46300
X96888Y-47300
X97888Y-16300
X97888Y-17300
X97888Y-18300
X97888Y-19300
X97888Y-20300
X97888Y-21300
X97888Y-22300
X97888Y-23300
X97888Y-24300
X97888Y-25300
X97888Y-26300
X97888Y-27300
X97888Y-28300
X97888Y-29300
X97888Y-30300
X97888Y-31300
X97888Y-32300
X97888Y-33300
X97888Y-34300
X97888Y-35300
X97888Y-36300
X97888Y-37300
X97888Y-38300
X97888Y-39300
X97888Y-40300
X97888Y-41300
X97888Y-42300
X97888Y-43300
X97888Y-44300
X97888Y-45300
X97888Y-46300
X97888Y-47300
T5
X22900Y-11125
X22900Y-52475
X42400Y-11125
X42400Y-52475
X61900Y-11125
X61900Y-52475
T4
G00X13498Y-14746
M15
G01X13498Y-15534
M16
G05
G00X14285Y-16990
M15
G01X15073Y-16990
M16
G05
G00X15860Y-14648
M15
G01X15860Y-15632
M16
G05
T0
M30
