G04 #@! TF.GenerationSoftware,KiCad,Pcbnew,(6.0.2)*
G04 #@! TF.CreationDate,2022-03-23T23:40:58-07:00*
G04 #@! TF.ProjectId,test_rope,74657374-5f72-46f7-9065-2e6b69636164,rev?*
G04 #@! TF.SameCoordinates,Original*
G04 #@! TF.FileFunction,Soldermask,Bot*
G04 #@! TF.FilePolarity,Negative*
%FSLAX46Y46*%
G04 Gerber Fmt 4.6, Leading zero omitted, Abs format (unit mm)*
G04 Created by KiCad (PCBNEW (6.0.2)) date 2022-03-23 23:40:58*
%MOMM*%
%LPD*%
G01*
G04 APERTURE LIST*
G04 Aperture macros list*
%AMRoundRect*
0 Rectangle with rounded corners*
0 $1 Rounding radius*
0 $2 $3 $4 $5 $6 $7 $8 $9 X,Y pos of 4 corners*
0 Add a 4 corners polygon primitive as box body*
4,1,4,$2,$3,$4,$5,$6,$7,$8,$9,$2,$3,0*
0 Add four circle primitives for the rounded corners*
1,1,$1+$1,$2,$3*
1,1,$1+$1,$4,$5*
1,1,$1+$1,$6,$7*
1,1,$1+$1,$8,$9*
0 Add four rect primitives between the rounded corners*
20,1,$1+$1,$2,$3,$4,$5,0*
20,1,$1+$1,$4,$5,$6,$7,0*
20,1,$1+$1,$6,$7,$8,$9,0*
20,1,$1+$1,$8,$9,$2,$3,0*%
G04 Aperture macros list end*
%ADD10R,1.700000X1.700000*%
%ADD11O,1.700000X1.700000*%
%ADD12C,2.850000*%
%ADD13RoundRect,0.249999X-0.525001X-0.525001X0.525001X-0.525001X0.525001X0.525001X-0.525001X0.525001X0*%
%ADD14C,1.550000*%
G04 APERTURE END LIST*
D10*
X134620000Y-116840000D03*
D11*
X137160000Y-116840000D03*
X139700000Y-116840000D03*
X142240000Y-116840000D03*
X144780000Y-116840000D03*
X147320000Y-116840000D03*
X149860000Y-116840000D03*
X152400000Y-116840000D03*
X154940000Y-116840000D03*
X157480000Y-116840000D03*
D12*
X108920000Y-42630000D03*
X108920000Y-132630000D03*
D13*
X106680000Y-48260000D03*
D14*
X106680000Y-50800000D03*
X106680000Y-53340000D03*
X106680000Y-55880000D03*
X106680000Y-58420000D03*
X106680000Y-60960000D03*
X106680000Y-63500000D03*
X106680000Y-66040000D03*
X106680000Y-68580000D03*
X106680000Y-71120000D03*
X106680000Y-73660000D03*
X106680000Y-76200000D03*
X106680000Y-78740000D03*
X106680000Y-81280000D03*
X106680000Y-83820000D03*
X106680000Y-86360000D03*
X106680000Y-88900000D03*
X106680000Y-91440000D03*
X106680000Y-93980000D03*
X106680000Y-96520000D03*
X106680000Y-99060000D03*
X106680000Y-101600000D03*
X106680000Y-104140000D03*
X106680000Y-106680000D03*
X106680000Y-109220000D03*
X106680000Y-111760000D03*
X106680000Y-114300000D03*
X106680000Y-116840000D03*
X106680000Y-119380000D03*
X106680000Y-121920000D03*
X106680000Y-124460000D03*
X106680000Y-127000000D03*
X109220000Y-48260000D03*
X109220000Y-50800000D03*
X109220000Y-53340000D03*
X109220000Y-55880000D03*
X109220000Y-58420000D03*
X109220000Y-60960000D03*
X109220000Y-63500000D03*
X109220000Y-66040000D03*
X109220000Y-68580000D03*
X109220000Y-71120000D03*
X109220000Y-73660000D03*
X109220000Y-76200000D03*
X109220000Y-78740000D03*
X109220000Y-81280000D03*
X109220000Y-83820000D03*
X109220000Y-86360000D03*
X109220000Y-88900000D03*
X109220000Y-91440000D03*
X109220000Y-93980000D03*
X109220000Y-96520000D03*
X109220000Y-99060000D03*
X109220000Y-101600000D03*
X109220000Y-104140000D03*
X109220000Y-106680000D03*
X109220000Y-109220000D03*
X109220000Y-111760000D03*
X109220000Y-114300000D03*
X109220000Y-116840000D03*
X109220000Y-119380000D03*
X109220000Y-121920000D03*
X109220000Y-124460000D03*
X109220000Y-127000000D03*
X111760000Y-48260000D03*
X111760000Y-50800000D03*
X111760000Y-53340000D03*
X111760000Y-55880000D03*
X111760000Y-58420000D03*
X111760000Y-60960000D03*
X111760000Y-63500000D03*
X111760000Y-66040000D03*
X111760000Y-68580000D03*
X111760000Y-71120000D03*
X111760000Y-73660000D03*
X111760000Y-76200000D03*
X111760000Y-78740000D03*
X111760000Y-81280000D03*
X111760000Y-83820000D03*
X111760000Y-86360000D03*
X111760000Y-88900000D03*
X111760000Y-91440000D03*
X111760000Y-93980000D03*
X111760000Y-96520000D03*
X111760000Y-99060000D03*
X111760000Y-101600000D03*
X111760000Y-104140000D03*
X111760000Y-106680000D03*
X111760000Y-109220000D03*
X111760000Y-111760000D03*
X111760000Y-114300000D03*
X111760000Y-116840000D03*
X111760000Y-119380000D03*
X111760000Y-121920000D03*
X111760000Y-124460000D03*
X111760000Y-127000000D03*
D11*
X157480000Y-58420000D03*
X154940000Y-58420000D03*
X152400000Y-58420000D03*
X149860000Y-58420000D03*
X147320000Y-58420000D03*
X144780000Y-58420000D03*
X142240000Y-58420000D03*
X139700000Y-58420000D03*
X137160000Y-58420000D03*
D10*
X134620000Y-58420000D03*
M02*
