M48
INCH,TZ
T1C0.0157
T2C0.0394
%
G90
G05
T1
X47600Y-29000
X47600Y-30000
X48900Y-23100
X49100Y-48600
X50100Y-43100
X50100Y-47600
X50600Y-42600
X58200Y-25300
X59400Y-25700
X59500Y-19000
X59500Y-50000
X61500Y-19000
X61500Y-50000
T2
X42000Y-19000
X42000Y-20000
X42000Y-21000
X42000Y-22000
X42000Y-23000
X42000Y-24000
X42000Y-25000
X42000Y-26000
X42000Y-27000
X42000Y-28000
X42000Y-29000
X42000Y-30000
X42000Y-31000
X42000Y-32000
X42000Y-33000
X42000Y-34000
X42000Y-35000
X42000Y-36000
X42000Y-37000
X42000Y-38000
X42000Y-39000
X42000Y-40000
X42000Y-41000
X42000Y-42000
X42000Y-43000
X42000Y-44000
X42000Y-45000
X42000Y-46000
X42000Y-47000
X42000Y-48000
X42000Y-49000
X42000Y-50000
X43000Y-19000
X43000Y-20000
X43000Y-21000
X43000Y-22000
X43000Y-23000
X43000Y-24000
X43000Y-25000
X43000Y-26000
X43000Y-27000
X43000Y-28000
X43000Y-29000
X43000Y-30000
X43000Y-31000
X43000Y-32000
X43000Y-33000
X43000Y-34000
X43000Y-35000
X43000Y-36000
X43000Y-37000
X43000Y-38000
X43000Y-39000
X43000Y-40000
X43000Y-41000
X43000Y-42000
X43000Y-43000
X43000Y-44000
X43000Y-45000
X43000Y-46000
X43000Y-47000
X43000Y-48000
X43000Y-49000
X43000Y-50000
X44000Y-19000
X44000Y-20000
X44000Y-21000
X44000Y-22000
X44000Y-23000
X44000Y-24000
X44000Y-25000
X44000Y-26000
X44000Y-27000
X44000Y-28000
X44000Y-29000
X44000Y-30000
X44000Y-31000
X44000Y-32000
X44000Y-33000
X44000Y-34000
X44000Y-35000
X44000Y-36000
X44000Y-37000
X44000Y-38000
X44000Y-39000
X44000Y-40000
X44000Y-41000
X44000Y-42000
X44000Y-43000
X44000Y-44000
X44000Y-45000
X44000Y-46000
X44000Y-47000
X44000Y-48000
X44000Y-49000
X44000Y-50000
X53000Y-23000
X53000Y-46000
X54000Y-23000
X54000Y-46000
X55000Y-23000
X55000Y-46000
X56000Y-23000
X56000Y-46000
X57000Y-23000
X57000Y-46000
X58000Y-23000
X58000Y-46000
X59000Y-23000
X59000Y-46000
X60000Y-23000
X60000Y-46000
X61000Y-23000
X61000Y-46000
X62000Y-23000
X62000Y-46000
T0
M30
