G04 #@! TF.GenerationSoftware,KiCad,Pcbnew,(6.0.2)*
G04 #@! TF.CreationDate,2022-03-23T23:40:57-07:00*
G04 #@! TF.ProjectId,test_rope,74657374-5f72-46f7-9065-2e6b69636164,rev?*
G04 #@! TF.SameCoordinates,Original*
G04 #@! TF.FileFunction,Copper,L2,Bot*
G04 #@! TF.FilePolarity,Positive*
%FSLAX46Y46*%
G04 Gerber Fmt 4.6, Leading zero omitted, Abs format (unit mm)*
G04 Created by KiCad (PCBNEW (6.0.2)) date 2022-03-23 23:40:57*
%MOMM*%
%LPD*%
G01*
G04 APERTURE LIST*
G04 Aperture macros list*
%AMRoundRect*
0 Rectangle with rounded corners*
0 $1 Rounding radius*
0 $2 $3 $4 $5 $6 $7 $8 $9 X,Y pos of 4 corners*
0 Add a 4 corners polygon primitive as box body*
4,1,4,$2,$3,$4,$5,$6,$7,$8,$9,$2,$3,0*
0 Add four circle primitives for the rounded corners*
1,1,$1+$1,$2,$3*
1,1,$1+$1,$4,$5*
1,1,$1+$1,$6,$7*
1,1,$1+$1,$8,$9*
0 Add four rect primitives between the rounded corners*
20,1,$1+$1,$2,$3,$4,$5,0*
20,1,$1+$1,$4,$5,$6,$7,0*
20,1,$1+$1,$6,$7,$8,$9,0*
20,1,$1+$1,$8,$9,$2,$3,0*%
G04 Aperture macros list end*
G04 #@! TA.AperFunction,ComponentPad*
%ADD10R,1.700000X1.700000*%
G04 #@! TD*
G04 #@! TA.AperFunction,ComponentPad*
%ADD11O,1.700000X1.700000*%
G04 #@! TD*
G04 #@! TA.AperFunction,ComponentPad*
%ADD12RoundRect,0.249999X-0.525001X-0.525001X0.525001X-0.525001X0.525001X0.525001X-0.525001X0.525001X0*%
G04 #@! TD*
G04 #@! TA.AperFunction,ComponentPad*
%ADD13C,1.550000*%
G04 #@! TD*
G04 #@! TA.AperFunction,ViaPad*
%ADD14C,0.800000*%
G04 #@! TD*
G04 #@! TA.AperFunction,Conductor*
%ADD15C,0.254000*%
G04 #@! TD*
G04 APERTURE END LIST*
D10*
X134620000Y-116840000D03*
D11*
X137160000Y-116840000D03*
X139700000Y-116840000D03*
X142240000Y-116840000D03*
X144780000Y-116840000D03*
X147320000Y-116840000D03*
X149860000Y-116840000D03*
X152400000Y-116840000D03*
X154940000Y-116840000D03*
X157480000Y-116840000D03*
D12*
X106680000Y-48260000D03*
D13*
X106680000Y-50800000D03*
X106680000Y-53340000D03*
X106680000Y-55880000D03*
X106680000Y-58420000D03*
X106680000Y-60960000D03*
X106680000Y-63500000D03*
X106680000Y-66040000D03*
X106680000Y-68580000D03*
X106680000Y-71120000D03*
X106680000Y-73660000D03*
X106680000Y-76200000D03*
X106680000Y-78740000D03*
X106680000Y-81280000D03*
X106680000Y-83820000D03*
X106680000Y-86360000D03*
X106680000Y-88900000D03*
X106680000Y-91440000D03*
X106680000Y-93980000D03*
X106680000Y-96520000D03*
X106680000Y-99060000D03*
X106680000Y-101600000D03*
X106680000Y-104140000D03*
X106680000Y-106680000D03*
X106680000Y-109220000D03*
X106680000Y-111760000D03*
X106680000Y-114300000D03*
X106680000Y-116840000D03*
X106680000Y-119380000D03*
X106680000Y-121920000D03*
X106680000Y-124460000D03*
X106680000Y-127000000D03*
X109220000Y-48260000D03*
X109220000Y-50800000D03*
X109220000Y-53340000D03*
X109220000Y-55880000D03*
X109220000Y-58420000D03*
X109220000Y-60960000D03*
X109220000Y-63500000D03*
X109220000Y-66040000D03*
X109220000Y-68580000D03*
X109220000Y-71120000D03*
X109220000Y-73660000D03*
X109220000Y-76200000D03*
X109220000Y-78740000D03*
X109220000Y-81280000D03*
X109220000Y-83820000D03*
X109220000Y-86360000D03*
X109220000Y-88900000D03*
X109220000Y-91440000D03*
X109220000Y-93980000D03*
X109220000Y-96520000D03*
X109220000Y-99060000D03*
X109220000Y-101600000D03*
X109220000Y-104140000D03*
X109220000Y-106680000D03*
X109220000Y-109220000D03*
X109220000Y-111760000D03*
X109220000Y-114300000D03*
X109220000Y-116840000D03*
X109220000Y-119380000D03*
X109220000Y-121920000D03*
X109220000Y-124460000D03*
X109220000Y-127000000D03*
X111760000Y-48260000D03*
X111760000Y-50800000D03*
X111760000Y-53340000D03*
X111760000Y-55880000D03*
X111760000Y-58420000D03*
X111760000Y-60960000D03*
X111760000Y-63500000D03*
X111760000Y-66040000D03*
X111760000Y-68580000D03*
X111760000Y-71120000D03*
X111760000Y-73660000D03*
X111760000Y-76200000D03*
X111760000Y-78740000D03*
X111760000Y-81280000D03*
X111760000Y-83820000D03*
X111760000Y-86360000D03*
X111760000Y-88900000D03*
X111760000Y-91440000D03*
X111760000Y-93980000D03*
X111760000Y-96520000D03*
X111760000Y-99060000D03*
X111760000Y-101600000D03*
X111760000Y-104140000D03*
X111760000Y-106680000D03*
X111760000Y-109220000D03*
X111760000Y-111760000D03*
X111760000Y-114300000D03*
X111760000Y-116840000D03*
X111760000Y-119380000D03*
X111760000Y-121920000D03*
X111760000Y-124460000D03*
X111760000Y-127000000D03*
D11*
X157480000Y-58420000D03*
X154940000Y-58420000D03*
X152400000Y-58420000D03*
X149860000Y-58420000D03*
X147320000Y-58420000D03*
X144780000Y-58420000D03*
X142240000Y-58420000D03*
X139700000Y-58420000D03*
X137160000Y-58420000D03*
D10*
X134620000Y-58420000D03*
D14*
X124206000Y-58674000D03*
X128524000Y-108204000D03*
X127254000Y-109474000D03*
X147828000Y-64262000D03*
X150876000Y-65278000D03*
X120904000Y-73660000D03*
X120904000Y-76200000D03*
X127254000Y-120904000D03*
X124714000Y-123444000D03*
X156210000Y-127000000D03*
X151130000Y-127000000D03*
X151130000Y-48260000D03*
X156210000Y-48260000D03*
D15*
X111760000Y-71120000D02*
X124206000Y-58674000D01*
X128524000Y-108204000D02*
X137160000Y-116840000D01*
X127254000Y-109474000D02*
X134620000Y-116840000D01*
X133350000Y-64262000D02*
X147828000Y-64262000D01*
X120904000Y-73660000D02*
X130302000Y-64262000D01*
X130302000Y-64262000D02*
X133350000Y-64262000D01*
X131826000Y-65278000D02*
X150876000Y-65278000D01*
X120904000Y-76200000D02*
X131826000Y-65278000D01*
X124714000Y-123444000D02*
X127254000Y-120904000D01*
X111760000Y-96520000D02*
X116840000Y-101600000D01*
X116840000Y-101600000D02*
X116840000Y-105664000D01*
X111760000Y-50800000D02*
X129540000Y-50800000D01*
X129540000Y-50800000D02*
X137160000Y-58420000D01*
X111760000Y-55880000D02*
X132080000Y-55880000D01*
X132080000Y-55880000D02*
X134620000Y-58420000D01*
X111760000Y-104140000D02*
X130048000Y-122428000D01*
X130048000Y-122428000D02*
X141732000Y-122428000D01*
X141732000Y-122428000D02*
X147320000Y-116840000D01*
X111760000Y-101600000D02*
X115316000Y-105156000D01*
X115316000Y-105156000D02*
X115316000Y-106426000D01*
X140208000Y-121412000D02*
X144780000Y-116840000D01*
X115316000Y-106426000D02*
X130302000Y-121412000D01*
X130302000Y-121412000D02*
X140208000Y-121412000D01*
X111760000Y-99060000D02*
X116078000Y-103378000D01*
X116078000Y-103378000D02*
X116078000Y-105918000D01*
X116078000Y-105918000D02*
X130556000Y-120396000D01*
X130556000Y-120396000D02*
X138684000Y-120396000D01*
X138684000Y-120396000D02*
X142240000Y-116840000D01*
X130556000Y-119380000D02*
X138430000Y-119380000D01*
X116840000Y-105664000D02*
X130556000Y-119380000D01*
X138430000Y-119380000D02*
X139700000Y-118110000D01*
X139700000Y-118110000D02*
X139700000Y-116840000D01*
X111760000Y-93980000D02*
X116586000Y-89154000D01*
X116586000Y-89154000D02*
X116586000Y-74676000D01*
X116586000Y-74676000D02*
X128524000Y-62738000D01*
X128524000Y-62738000D02*
X143002000Y-62738000D01*
X143002000Y-62738000D02*
X147320000Y-58420000D01*
X111760000Y-91440000D02*
X115824000Y-87376000D01*
X115824000Y-87376000D02*
X115824000Y-74422000D01*
X141224000Y-61976000D02*
X144780000Y-58420000D01*
X115824000Y-74422000D02*
X128270000Y-61976000D01*
X128270000Y-61976000D02*
X141224000Y-61976000D01*
X111760000Y-88900000D02*
X115062000Y-85598000D01*
X115062000Y-85598000D02*
X115062000Y-73914000D01*
X115062000Y-73914000D02*
X127762000Y-61214000D01*
X127762000Y-61214000D02*
X139446000Y-61214000D01*
X139446000Y-61214000D02*
X142240000Y-58420000D01*
X111760000Y-86360000D02*
X114300000Y-83820000D01*
X137668000Y-60452000D02*
X139700000Y-58420000D01*
X114300000Y-83820000D02*
X114300000Y-73660000D01*
X114300000Y-73660000D02*
X127508000Y-60452000D01*
X127508000Y-60452000D02*
X137668000Y-60452000D01*
X156210000Y-48260000D02*
X151130000Y-48260000D01*
X156210000Y-127000000D02*
X160655000Y-122555000D01*
X160655000Y-122555000D02*
X160655000Y-52705000D01*
X160655000Y-52705000D02*
X156210000Y-48260000D01*
X151130000Y-127000000D02*
X156210000Y-127000000D01*
M02*
