G04 #@! TF.GenerationSoftware,KiCad,Pcbnew,(6.0.2)*
G04 #@! TF.CreationDate,2022-03-23T23:40:58-07:00*
G04 #@! TF.ProjectId,test_rope,74657374-5f72-46f7-9065-2e6b69636164,rev?*
G04 #@! TF.SameCoordinates,Original*
G04 #@! TF.FileFunction,Legend,Top*
G04 #@! TF.FilePolarity,Positive*
%FSLAX46Y46*%
G04 Gerber Fmt 4.6, Leading zero omitted, Abs format (unit mm)*
G04 Created by KiCad (PCBNEW (6.0.2)) date 2022-03-23 23:40:58*
%MOMM*%
%LPD*%
G01*
G04 APERTURE LIST*
%ADD10C,0.150000*%
%ADD11C,0.120000*%
G04 APERTURE END LIST*
D10*
X125384047Y-80526666D02*
X125431666Y-80431428D01*
X125479285Y-80383809D01*
X125574523Y-80336190D01*
X125622142Y-80336190D01*
X125717380Y-80383809D01*
X125765000Y-80431428D01*
X125812619Y-80526666D01*
X125812619Y-80717142D01*
X125765000Y-80812380D01*
X125717380Y-80860000D01*
X125622142Y-80907619D01*
X125574523Y-80907619D01*
X125479285Y-80860000D01*
X125431666Y-80812380D01*
X125384047Y-80717142D01*
X125384047Y-80526666D01*
X125336428Y-80431428D01*
X125288809Y-80383809D01*
X125193571Y-80336190D01*
X125003095Y-80336190D01*
X124907857Y-80383809D01*
X124860238Y-80431428D01*
X124812619Y-80526666D01*
X124812619Y-80717142D01*
X124860238Y-80812380D01*
X124907857Y-80860000D01*
X125003095Y-80907619D01*
X125193571Y-80907619D01*
X125288809Y-80860000D01*
X125336428Y-80812380D01*
X125384047Y-80717142D01*
X125193571Y-81336190D02*
X125193571Y-82098095D01*
X125336428Y-82907619D02*
X125288809Y-83050476D01*
X125241190Y-83098095D01*
X125145952Y-83145714D01*
X125003095Y-83145714D01*
X124907857Y-83098095D01*
X124860238Y-83050476D01*
X124812619Y-82955238D01*
X124812619Y-82574285D01*
X125812619Y-82574285D01*
X125812619Y-82907619D01*
X125765000Y-83002857D01*
X125717380Y-83050476D01*
X125622142Y-83098095D01*
X125526904Y-83098095D01*
X125431666Y-83050476D01*
X125384047Y-83002857D01*
X125336428Y-82907619D01*
X125336428Y-82574285D01*
X124812619Y-83574285D02*
X125479285Y-83574285D01*
X125812619Y-83574285D02*
X125765000Y-83526666D01*
X125717380Y-83574285D01*
X125765000Y-83621904D01*
X125812619Y-83574285D01*
X125717380Y-83574285D01*
X125479285Y-83907619D02*
X125479285Y-84288571D01*
X125812619Y-84050476D02*
X124955476Y-84050476D01*
X124860238Y-84098095D01*
X124812619Y-84193333D01*
X124812619Y-84288571D01*
X125812619Y-85240952D02*
X125812619Y-85812380D01*
X124812619Y-85526666D02*
X125812619Y-85526666D01*
X124860238Y-86526666D02*
X124812619Y-86431428D01*
X124812619Y-86240952D01*
X124860238Y-86145714D01*
X124955476Y-86098095D01*
X125336428Y-86098095D01*
X125431666Y-86145714D01*
X125479285Y-86240952D01*
X125479285Y-86431428D01*
X125431666Y-86526666D01*
X125336428Y-86574285D01*
X125241190Y-86574285D01*
X125145952Y-86098095D01*
X124860238Y-86955238D02*
X124812619Y-87050476D01*
X124812619Y-87240952D01*
X124860238Y-87336190D01*
X124955476Y-87383809D01*
X125003095Y-87383809D01*
X125098333Y-87336190D01*
X125145952Y-87240952D01*
X125145952Y-87098095D01*
X125193571Y-87002857D01*
X125288809Y-86955238D01*
X125336428Y-86955238D01*
X125431666Y-87002857D01*
X125479285Y-87098095D01*
X125479285Y-87240952D01*
X125431666Y-87336190D01*
X125479285Y-87669523D02*
X125479285Y-88050476D01*
X125812619Y-87812380D02*
X124955476Y-87812380D01*
X124860238Y-87860000D01*
X124812619Y-87955238D01*
X124812619Y-88050476D01*
X124812619Y-89717142D02*
X125288809Y-89383809D01*
X124812619Y-89145714D02*
X125812619Y-89145714D01*
X125812619Y-89526666D01*
X125765000Y-89621904D01*
X125717380Y-89669523D01*
X125622142Y-89717142D01*
X125479285Y-89717142D01*
X125384047Y-89669523D01*
X125336428Y-89621904D01*
X125288809Y-89526666D01*
X125288809Y-89145714D01*
X124812619Y-90288571D02*
X124860238Y-90193333D01*
X124907857Y-90145714D01*
X125003095Y-90098095D01*
X125288809Y-90098095D01*
X125384047Y-90145714D01*
X125431666Y-90193333D01*
X125479285Y-90288571D01*
X125479285Y-90431428D01*
X125431666Y-90526666D01*
X125384047Y-90574285D01*
X125288809Y-90621904D01*
X125003095Y-90621904D01*
X124907857Y-90574285D01*
X124860238Y-90526666D01*
X124812619Y-90431428D01*
X124812619Y-90288571D01*
X125479285Y-91050476D02*
X124479285Y-91050476D01*
X125431666Y-91050476D02*
X125479285Y-91145714D01*
X125479285Y-91336190D01*
X125431666Y-91431428D01*
X125384047Y-91479047D01*
X125288809Y-91526666D01*
X125003095Y-91526666D01*
X124907857Y-91479047D01*
X124860238Y-91431428D01*
X124812619Y-91336190D01*
X124812619Y-91145714D01*
X124860238Y-91050476D01*
X124860238Y-92336190D02*
X124812619Y-92240952D01*
X124812619Y-92050476D01*
X124860238Y-91955238D01*
X124955476Y-91907619D01*
X125336428Y-91907619D01*
X125431666Y-91955238D01*
X125479285Y-92050476D01*
X125479285Y-92240952D01*
X125431666Y-92336190D01*
X125336428Y-92383809D01*
X125241190Y-92383809D01*
X125145952Y-91907619D01*
X123202619Y-79526666D02*
X124202619Y-79526666D01*
X123488333Y-79860000D01*
X124202619Y-80193333D01*
X123202619Y-80193333D01*
X123202619Y-80669523D02*
X123869285Y-80669523D01*
X124202619Y-80669523D02*
X124155000Y-80621904D01*
X124107380Y-80669523D01*
X124155000Y-80717142D01*
X124202619Y-80669523D01*
X124107380Y-80669523D01*
X123202619Y-81145714D02*
X124202619Y-81145714D01*
X123583571Y-81240952D02*
X123202619Y-81526666D01*
X123869285Y-81526666D02*
X123488333Y-81145714D01*
X123250238Y-82336190D02*
X123202619Y-82240952D01*
X123202619Y-82050476D01*
X123250238Y-81955238D01*
X123345476Y-81907619D01*
X123726428Y-81907619D01*
X123821666Y-81955238D01*
X123869285Y-82050476D01*
X123869285Y-82240952D01*
X123821666Y-82336190D01*
X123726428Y-82383809D01*
X123631190Y-82383809D01*
X123535952Y-81907619D01*
X123250238Y-83526666D02*
X123202619Y-83669523D01*
X123202619Y-83907619D01*
X123250238Y-84002857D01*
X123297857Y-84050476D01*
X123393095Y-84098095D01*
X123488333Y-84098095D01*
X123583571Y-84050476D01*
X123631190Y-84002857D01*
X123678809Y-83907619D01*
X123726428Y-83717142D01*
X123774047Y-83621904D01*
X123821666Y-83574285D01*
X123916904Y-83526666D01*
X124012142Y-83526666D01*
X124107380Y-83574285D01*
X124155000Y-83621904D01*
X124202619Y-83717142D01*
X124202619Y-83955238D01*
X124155000Y-84098095D01*
X123869285Y-84383809D02*
X123869285Y-84764761D01*
X124202619Y-84526666D02*
X123345476Y-84526666D01*
X123250238Y-84574285D01*
X123202619Y-84669523D01*
X123202619Y-84764761D01*
X123250238Y-85479047D02*
X123202619Y-85383809D01*
X123202619Y-85193333D01*
X123250238Y-85098095D01*
X123345476Y-85050476D01*
X123726428Y-85050476D01*
X123821666Y-85098095D01*
X123869285Y-85193333D01*
X123869285Y-85383809D01*
X123821666Y-85479047D01*
X123726428Y-85526666D01*
X123631190Y-85526666D01*
X123535952Y-85050476D01*
X123869285Y-85860000D02*
X123202619Y-86050476D01*
X123678809Y-86240952D01*
X123202619Y-86431428D01*
X123869285Y-86621904D01*
X123202619Y-87431428D02*
X123726428Y-87431428D01*
X123821666Y-87383809D01*
X123869285Y-87288571D01*
X123869285Y-87098095D01*
X123821666Y-87002857D01*
X123250238Y-87431428D02*
X123202619Y-87336190D01*
X123202619Y-87098095D01*
X123250238Y-87002857D01*
X123345476Y-86955238D01*
X123440714Y-86955238D01*
X123535952Y-87002857D01*
X123583571Y-87098095D01*
X123583571Y-87336190D01*
X123631190Y-87431428D01*
X123202619Y-87907619D02*
X123869285Y-87907619D01*
X123678809Y-87907619D02*
X123774047Y-87955238D01*
X123821666Y-88002857D01*
X123869285Y-88098095D01*
X123869285Y-88193333D01*
X123869285Y-88383809D02*
X123869285Y-88764761D01*
X124202619Y-88526666D02*
X123345476Y-88526666D01*
X123250238Y-88574285D01*
X123202619Y-88669523D01*
X123202619Y-88764761D01*
X124107380Y-89812380D02*
X124155000Y-89860000D01*
X124202619Y-89955238D01*
X124202619Y-90193333D01*
X124155000Y-90288571D01*
X124107380Y-90336190D01*
X124012142Y-90383809D01*
X123916904Y-90383809D01*
X123774047Y-90336190D01*
X123202619Y-89764761D01*
X123202619Y-90383809D01*
X124202619Y-91002857D02*
X124202619Y-91098095D01*
X124155000Y-91193333D01*
X124107380Y-91240952D01*
X124012142Y-91288571D01*
X123821666Y-91336190D01*
X123583571Y-91336190D01*
X123393095Y-91288571D01*
X123297857Y-91240952D01*
X123250238Y-91193333D01*
X123202619Y-91098095D01*
X123202619Y-91002857D01*
X123250238Y-90907619D01*
X123297857Y-90860000D01*
X123393095Y-90812380D01*
X123583571Y-90764761D01*
X123821666Y-90764761D01*
X124012142Y-90812380D01*
X124107380Y-90860000D01*
X124155000Y-90907619D01*
X124202619Y-91002857D01*
X124107380Y-91717142D02*
X124155000Y-91764761D01*
X124202619Y-91860000D01*
X124202619Y-92098095D01*
X124155000Y-92193333D01*
X124107380Y-92240952D01*
X124012142Y-92288571D01*
X123916904Y-92288571D01*
X123774047Y-92240952D01*
X123202619Y-91669523D01*
X123202619Y-92288571D01*
X124107380Y-92669523D02*
X124155000Y-92717142D01*
X124202619Y-92812380D01*
X124202619Y-93050476D01*
X124155000Y-93145714D01*
X124107380Y-93193333D01*
X124012142Y-93240952D01*
X123916904Y-93240952D01*
X123774047Y-93193333D01*
X123202619Y-92621904D01*
X123202619Y-93240952D01*
X156662380Y-46902666D02*
X156186190Y-47236000D01*
X156662380Y-47474095D02*
X155662380Y-47474095D01*
X155662380Y-47093142D01*
X155710000Y-46997904D01*
X155757619Y-46950285D01*
X155852857Y-46902666D01*
X155995714Y-46902666D01*
X156090952Y-46950285D01*
X156138571Y-46997904D01*
X156186190Y-47093142D01*
X156186190Y-47474095D01*
X156090952Y-46331238D02*
X156043333Y-46426476D01*
X155995714Y-46474095D01*
X155900476Y-46521714D01*
X155852857Y-46521714D01*
X155757619Y-46474095D01*
X155710000Y-46426476D01*
X155662380Y-46331238D01*
X155662380Y-46140761D01*
X155710000Y-46045523D01*
X155757619Y-45997904D01*
X155852857Y-45950285D01*
X155900476Y-45950285D01*
X155995714Y-45997904D01*
X156043333Y-46045523D01*
X156090952Y-46140761D01*
X156090952Y-46331238D01*
X156138571Y-46426476D01*
X156186190Y-46474095D01*
X156281428Y-46521714D01*
X156471904Y-46521714D01*
X156567142Y-46474095D01*
X156614761Y-46426476D01*
X156662380Y-46331238D01*
X156662380Y-46140761D01*
X156614761Y-46045523D01*
X156567142Y-45997904D01*
X156471904Y-45950285D01*
X156281428Y-45950285D01*
X156186190Y-45997904D01*
X156138571Y-46045523D01*
X156090952Y-46140761D01*
X157313333Y-65730380D02*
X156980000Y-65254190D01*
X156741904Y-65730380D02*
X156741904Y-64730380D01*
X157122857Y-64730380D01*
X157218095Y-64778000D01*
X157265714Y-64825619D01*
X157313333Y-64920857D01*
X157313333Y-65063714D01*
X157265714Y-65158952D01*
X157218095Y-65206571D01*
X157122857Y-65254190D01*
X156741904Y-65254190D01*
X158170476Y-64730380D02*
X157980000Y-64730380D01*
X157884761Y-64778000D01*
X157837142Y-64825619D01*
X157741904Y-64968476D01*
X157694285Y-65158952D01*
X157694285Y-65539904D01*
X157741904Y-65635142D01*
X157789523Y-65682761D01*
X157884761Y-65730380D01*
X158075238Y-65730380D01*
X158170476Y-65682761D01*
X158218095Y-65635142D01*
X158265714Y-65539904D01*
X158265714Y-65301809D01*
X158218095Y-65206571D01*
X158170476Y-65158952D01*
X158075238Y-65111333D01*
X157884761Y-65111333D01*
X157789523Y-65158952D01*
X157741904Y-65206571D01*
X157694285Y-65301809D01*
X154773333Y-65730380D02*
X154440000Y-65254190D01*
X154201904Y-65730380D02*
X154201904Y-64730380D01*
X154582857Y-64730380D01*
X154678095Y-64778000D01*
X154725714Y-64825619D01*
X154773333Y-64920857D01*
X154773333Y-65063714D01*
X154725714Y-65158952D01*
X154678095Y-65206571D01*
X154582857Y-65254190D01*
X154201904Y-65254190D01*
X155630476Y-65063714D02*
X155630476Y-65730380D01*
X155392380Y-64682761D02*
X155154285Y-65397047D01*
X155773333Y-65397047D01*
X131742380Y-117173333D02*
X132456666Y-117173333D01*
X132599523Y-117220952D01*
X132694761Y-117316190D01*
X132742380Y-117459047D01*
X132742380Y-117554285D01*
X131837619Y-116744761D02*
X131790000Y-116697142D01*
X131742380Y-116601904D01*
X131742380Y-116363809D01*
X131790000Y-116268571D01*
X131837619Y-116220952D01*
X131932857Y-116173333D01*
X132028095Y-116173333D01*
X132170952Y-116220952D01*
X132742380Y-116792380D01*
X132742380Y-116173333D01*
X116506666Y-47712380D02*
X116506666Y-48426666D01*
X116459047Y-48569523D01*
X116363809Y-48664761D01*
X116220952Y-48712380D01*
X116125714Y-48712380D01*
X117506666Y-48712380D02*
X116935238Y-48712380D01*
X117220952Y-48712380D02*
X117220952Y-47712380D01*
X117125714Y-47855238D01*
X117030476Y-47950476D01*
X116935238Y-47998095D01*
X150058380Y-51792095D02*
X149058380Y-51792095D01*
X149058380Y-51554000D01*
X149106000Y-51411142D01*
X149201238Y-51315904D01*
X149296476Y-51268285D01*
X149486952Y-51220666D01*
X149629809Y-51220666D01*
X149820285Y-51268285D01*
X149915523Y-51315904D01*
X150010761Y-51411142D01*
X150058380Y-51554000D01*
X150058380Y-51792095D01*
X150058380Y-50744476D02*
X150058380Y-50554000D01*
X150010761Y-50458761D01*
X149963142Y-50411142D01*
X149820285Y-50315904D01*
X149629809Y-50268285D01*
X149248857Y-50268285D01*
X149153619Y-50315904D01*
X149106000Y-50363523D01*
X149058380Y-50458761D01*
X149058380Y-50649238D01*
X149106000Y-50744476D01*
X149153619Y-50792095D01*
X149248857Y-50839714D01*
X149486952Y-50839714D01*
X149582190Y-50792095D01*
X149629809Y-50744476D01*
X149677428Y-50649238D01*
X149677428Y-50458761D01*
X149629809Y-50363523D01*
X149582190Y-50315904D01*
X149486952Y-50268285D01*
X158186380Y-124944095D02*
X157186380Y-124944095D01*
X157186380Y-124706000D01*
X157234000Y-124563142D01*
X157329238Y-124467904D01*
X157424476Y-124420285D01*
X157614952Y-124372666D01*
X157757809Y-124372666D01*
X157948285Y-124420285D01*
X158043523Y-124467904D01*
X158138761Y-124563142D01*
X158186380Y-124706000D01*
X158186380Y-124944095D01*
X157186380Y-123515523D02*
X157186380Y-123706000D01*
X157234000Y-123801238D01*
X157281619Y-123848857D01*
X157424476Y-123944095D01*
X157614952Y-123991714D01*
X157995904Y-123991714D01*
X158091142Y-123944095D01*
X158138761Y-123896476D01*
X158186380Y-123801238D01*
X158186380Y-123610761D01*
X158138761Y-123515523D01*
X158091142Y-123467904D01*
X157995904Y-123420285D01*
X157757809Y-123420285D01*
X157662571Y-123467904D01*
X157614952Y-123515523D01*
X157567333Y-123610761D01*
X157567333Y-123801238D01*
X157614952Y-123896476D01*
X157662571Y-123944095D01*
X157757809Y-123991714D01*
X158186380Y-51760285D02*
X157186380Y-51760285D01*
X157186380Y-51522190D01*
X157234000Y-51379333D01*
X157329238Y-51284095D01*
X157424476Y-51236476D01*
X157614952Y-51188857D01*
X157757809Y-51188857D01*
X157948285Y-51236476D01*
X158043523Y-51284095D01*
X158138761Y-51379333D01*
X158186380Y-51522190D01*
X158186380Y-51760285D01*
X158186380Y-50236476D02*
X158186380Y-50807904D01*
X158186380Y-50522190D02*
X157186380Y-50522190D01*
X157329238Y-50617428D01*
X157424476Y-50712666D01*
X157472095Y-50807904D01*
X157281619Y-49855523D02*
X157234000Y-49807904D01*
X157186380Y-49712666D01*
X157186380Y-49474571D01*
X157234000Y-49379333D01*
X157281619Y-49331714D01*
X157376857Y-49284095D01*
X157472095Y-49284095D01*
X157614952Y-49331714D01*
X158186380Y-49903142D01*
X158186380Y-49284095D01*
X155138380Y-51760285D02*
X154138380Y-51760285D01*
X154138380Y-51522190D01*
X154186000Y-51379333D01*
X154281238Y-51284095D01*
X154376476Y-51236476D01*
X154566952Y-51188857D01*
X154709809Y-51188857D01*
X154900285Y-51236476D01*
X154995523Y-51284095D01*
X155090761Y-51379333D01*
X155138380Y-51522190D01*
X155138380Y-51760285D01*
X155138380Y-50236476D02*
X155138380Y-50807904D01*
X155138380Y-50522190D02*
X154138380Y-50522190D01*
X154281238Y-50617428D01*
X154376476Y-50712666D01*
X154424095Y-50807904D01*
X155138380Y-49284095D02*
X155138380Y-49855523D01*
X155138380Y-49569809D02*
X154138380Y-49569809D01*
X154281238Y-49665047D01*
X154376476Y-49760285D01*
X154424095Y-49855523D01*
X153106380Y-124944095D02*
X152106380Y-124944095D01*
X152106380Y-124706000D01*
X152154000Y-124563142D01*
X152249238Y-124467904D01*
X152344476Y-124420285D01*
X152534952Y-124372666D01*
X152677809Y-124372666D01*
X152868285Y-124420285D01*
X152963523Y-124467904D01*
X153058761Y-124563142D01*
X153106380Y-124706000D01*
X153106380Y-124944095D01*
X152439714Y-123515523D02*
X153106380Y-123515523D01*
X152058761Y-123753619D02*
X152773047Y-123991714D01*
X152773047Y-123372666D01*
X152233333Y-65730380D02*
X151900000Y-65254190D01*
X151661904Y-65730380D02*
X151661904Y-64730380D01*
X152042857Y-64730380D01*
X152138095Y-64778000D01*
X152185714Y-64825619D01*
X152233333Y-64920857D01*
X152233333Y-65063714D01*
X152185714Y-65158952D01*
X152138095Y-65206571D01*
X152042857Y-65254190D01*
X151661904Y-65254190D01*
X153138095Y-64730380D02*
X152661904Y-64730380D01*
X152614285Y-65206571D01*
X152661904Y-65158952D01*
X152757142Y-65111333D01*
X152995238Y-65111333D01*
X153090476Y-65158952D01*
X153138095Y-65206571D01*
X153185714Y-65301809D01*
X153185714Y-65539904D01*
X153138095Y-65635142D01*
X153090476Y-65682761D01*
X152995238Y-65730380D01*
X152757142Y-65730380D01*
X152661904Y-65682761D01*
X152614285Y-65635142D01*
X120705714Y-124912380D02*
X120705714Y-123912380D01*
X120943809Y-123912380D01*
X121086666Y-123960000D01*
X121181904Y-124055238D01*
X121229523Y-124150476D01*
X121277142Y-124340952D01*
X121277142Y-124483809D01*
X121229523Y-124674285D01*
X121181904Y-124769523D01*
X121086666Y-124864761D01*
X120943809Y-124912380D01*
X120705714Y-124912380D01*
X122229523Y-124912380D02*
X121658095Y-124912380D01*
X121943809Y-124912380D02*
X121943809Y-123912380D01*
X121848571Y-124055238D01*
X121753333Y-124150476D01*
X121658095Y-124198095D01*
X122562857Y-123912380D02*
X123181904Y-123912380D01*
X122848571Y-124293333D01*
X122991428Y-124293333D01*
X123086666Y-124340952D01*
X123134285Y-124388571D01*
X123181904Y-124483809D01*
X123181904Y-124721904D01*
X123134285Y-124817142D01*
X123086666Y-124864761D01*
X122991428Y-124912380D01*
X122705714Y-124912380D01*
X122610476Y-124864761D01*
X122562857Y-124817142D01*
X120705714Y-119832380D02*
X120705714Y-118832380D01*
X120943809Y-118832380D01*
X121086666Y-118880000D01*
X121181904Y-118975238D01*
X121229523Y-119070476D01*
X121277142Y-119260952D01*
X121277142Y-119403809D01*
X121229523Y-119594285D01*
X121181904Y-119689523D01*
X121086666Y-119784761D01*
X120943809Y-119832380D01*
X120705714Y-119832380D01*
X122229523Y-119832380D02*
X121658095Y-119832380D01*
X121943809Y-119832380D02*
X121943809Y-118832380D01*
X121848571Y-118975238D01*
X121753333Y-119070476D01*
X121658095Y-119118095D01*
X123086666Y-119165714D02*
X123086666Y-119832380D01*
X122848571Y-118784761D02*
X122610476Y-119499047D01*
X123229523Y-119499047D01*
X149804380Y-124944095D02*
X148804380Y-124944095D01*
X148804380Y-124706000D01*
X148852000Y-124563142D01*
X148947238Y-124467904D01*
X149042476Y-124420285D01*
X149232952Y-124372666D01*
X149375809Y-124372666D01*
X149566285Y-124420285D01*
X149661523Y-124467904D01*
X149756761Y-124563142D01*
X149804380Y-124706000D01*
X149804380Y-124944095D01*
X148804380Y-124039333D02*
X148804380Y-123420285D01*
X149185333Y-123753619D01*
X149185333Y-123610761D01*
X149232952Y-123515523D01*
X149280571Y-123467904D01*
X149375809Y-123420285D01*
X149613904Y-123420285D01*
X149709142Y-123467904D01*
X149756761Y-123515523D01*
X149804380Y-123610761D01*
X149804380Y-123896476D01*
X149756761Y-123991714D01*
X149709142Y-124039333D01*
X117879904Y-78684380D02*
X117879904Y-77684380D01*
X118118000Y-77684380D01*
X118260857Y-77732000D01*
X118356095Y-77827238D01*
X118403714Y-77922476D01*
X118451333Y-78112952D01*
X118451333Y-78255809D01*
X118403714Y-78446285D01*
X118356095Y-78541523D01*
X118260857Y-78636761D01*
X118118000Y-78684380D01*
X117879904Y-78684380D01*
X119022761Y-78112952D02*
X118927523Y-78065333D01*
X118879904Y-78017714D01*
X118832285Y-77922476D01*
X118832285Y-77874857D01*
X118879904Y-77779619D01*
X118927523Y-77732000D01*
X119022761Y-77684380D01*
X119213238Y-77684380D01*
X119308476Y-77732000D01*
X119356095Y-77779619D01*
X119403714Y-77874857D01*
X119403714Y-77922476D01*
X119356095Y-78017714D01*
X119308476Y-78065333D01*
X119213238Y-78112952D01*
X119022761Y-78112952D01*
X118927523Y-78160571D01*
X118879904Y-78208190D01*
X118832285Y-78303428D01*
X118832285Y-78493904D01*
X118879904Y-78589142D01*
X118927523Y-78636761D01*
X119022761Y-78684380D01*
X119213238Y-78684380D01*
X119308476Y-78636761D01*
X119356095Y-78589142D01*
X119403714Y-78493904D01*
X119403714Y-78303428D01*
X119356095Y-78208190D01*
X119308476Y-78160571D01*
X119213238Y-78112952D01*
X131742380Y-58753333D02*
X132456666Y-58753333D01*
X132599523Y-58800952D01*
X132694761Y-58896190D01*
X132742380Y-59039047D01*
X132742380Y-59134285D01*
X131742380Y-58372380D02*
X131742380Y-57753333D01*
X132123333Y-58086666D01*
X132123333Y-57943809D01*
X132170952Y-57848571D01*
X132218571Y-57800952D01*
X132313809Y-57753333D01*
X132551904Y-57753333D01*
X132647142Y-57800952D01*
X132694761Y-57848571D01*
X132742380Y-57943809D01*
X132742380Y-58229523D01*
X132694761Y-58324761D01*
X132647142Y-58372380D01*
X120673904Y-127452380D02*
X120673904Y-126452380D01*
X120912000Y-126452380D01*
X121054857Y-126500000D01*
X121150095Y-126595238D01*
X121197714Y-126690476D01*
X121245333Y-126880952D01*
X121245333Y-127023809D01*
X121197714Y-127214285D01*
X121150095Y-127309523D01*
X121054857Y-127404761D01*
X120912000Y-127452380D01*
X120673904Y-127452380D01*
X122197714Y-127452380D02*
X121626285Y-127452380D01*
X121912000Y-127452380D02*
X121912000Y-126452380D01*
X121816761Y-126595238D01*
X121721523Y-126690476D01*
X121626285Y-126738095D01*
X151582380Y-46902666D02*
X151106190Y-47236000D01*
X151582380Y-47474095D02*
X150582380Y-47474095D01*
X150582380Y-47093142D01*
X150630000Y-46997904D01*
X150677619Y-46950285D01*
X150772857Y-46902666D01*
X150915714Y-46902666D01*
X151010952Y-46950285D01*
X151058571Y-46997904D01*
X151106190Y-47093142D01*
X151106190Y-47474095D01*
X150582380Y-46569333D02*
X150582380Y-45902666D01*
X151582380Y-46331238D01*
X153106380Y-51760285D02*
X152106380Y-51760285D01*
X152106380Y-51522190D01*
X152154000Y-51379333D01*
X152249238Y-51284095D01*
X152344476Y-51236476D01*
X152534952Y-51188857D01*
X152677809Y-51188857D01*
X152868285Y-51236476D01*
X152963523Y-51284095D01*
X153058761Y-51379333D01*
X153106380Y-51522190D01*
X153106380Y-51760285D01*
X153106380Y-50236476D02*
X153106380Y-50807904D01*
X153106380Y-50522190D02*
X152106380Y-50522190D01*
X152249238Y-50617428D01*
X152344476Y-50712666D01*
X152392095Y-50807904D01*
X152106380Y-49617428D02*
X152106380Y-49522190D01*
X152154000Y-49426952D01*
X152201619Y-49379333D01*
X152296857Y-49331714D01*
X152487333Y-49284095D01*
X152725428Y-49284095D01*
X152915904Y-49331714D01*
X153011142Y-49379333D01*
X153058761Y-49426952D01*
X153106380Y-49522190D01*
X153106380Y-49617428D01*
X153058761Y-49712666D01*
X153011142Y-49760285D01*
X152915904Y-49807904D01*
X152725428Y-49855523D01*
X152487333Y-49855523D01*
X152296857Y-49807904D01*
X152201619Y-49760285D01*
X152154000Y-49712666D01*
X152106380Y-49617428D01*
X117879904Y-72334380D02*
X117879904Y-71334380D01*
X118118000Y-71334380D01*
X118260857Y-71382000D01*
X118356095Y-71477238D01*
X118403714Y-71572476D01*
X118451333Y-71762952D01*
X118451333Y-71905809D01*
X118403714Y-72096285D01*
X118356095Y-72191523D01*
X118260857Y-72286761D01*
X118118000Y-72334380D01*
X117879904Y-72334380D01*
X118784666Y-71334380D02*
X119451333Y-71334380D01*
X119022761Y-72334380D01*
X156662380Y-128436666D02*
X156186190Y-128770000D01*
X156662380Y-129008095D02*
X155662380Y-129008095D01*
X155662380Y-128627142D01*
X155710000Y-128531904D01*
X155757619Y-128484285D01*
X155852857Y-128436666D01*
X155995714Y-128436666D01*
X156090952Y-128484285D01*
X156138571Y-128531904D01*
X156186190Y-128627142D01*
X156186190Y-129008095D01*
X155757619Y-128055714D02*
X155710000Y-128008095D01*
X155662380Y-127912857D01*
X155662380Y-127674761D01*
X155710000Y-127579523D01*
X155757619Y-127531904D01*
X155852857Y-127484285D01*
X155948095Y-127484285D01*
X156090952Y-127531904D01*
X156662380Y-128103333D01*
X156662380Y-127484285D01*
X155138380Y-124944095D02*
X154138380Y-124944095D01*
X154138380Y-124706000D01*
X154186000Y-124563142D01*
X154281238Y-124467904D01*
X154376476Y-124420285D01*
X154566952Y-124372666D01*
X154709809Y-124372666D01*
X154900285Y-124420285D01*
X154995523Y-124467904D01*
X155090761Y-124563142D01*
X155138380Y-124706000D01*
X155138380Y-124944095D01*
X154138380Y-123467904D02*
X154138380Y-123944095D01*
X154614571Y-123991714D01*
X154566952Y-123944095D01*
X154519333Y-123848857D01*
X154519333Y-123610761D01*
X154566952Y-123515523D01*
X154614571Y-123467904D01*
X154709809Y-123420285D01*
X154947904Y-123420285D01*
X155043142Y-123467904D01*
X155090761Y-123515523D01*
X155138380Y-123610761D01*
X155138380Y-123848857D01*
X155090761Y-123944095D01*
X155043142Y-123991714D01*
X120673904Y-122372380D02*
X120673904Y-121372380D01*
X120912000Y-121372380D01*
X121054857Y-121420000D01*
X121150095Y-121515238D01*
X121197714Y-121610476D01*
X121245333Y-121800952D01*
X121245333Y-121943809D01*
X121197714Y-122134285D01*
X121150095Y-122229523D01*
X121054857Y-122324761D01*
X120912000Y-122372380D01*
X120673904Y-122372380D01*
X121626285Y-121467619D02*
X121673904Y-121420000D01*
X121769142Y-121372380D01*
X122007238Y-121372380D01*
X122102476Y-121420000D01*
X122150095Y-121467619D01*
X122197714Y-121562857D01*
X122197714Y-121658095D01*
X122150095Y-121800952D01*
X121578666Y-122372380D01*
X122197714Y-122372380D01*
X151582380Y-128436666D02*
X151106190Y-128770000D01*
X151582380Y-129008095D02*
X150582380Y-129008095D01*
X150582380Y-128627142D01*
X150630000Y-128531904D01*
X150677619Y-128484285D01*
X150772857Y-128436666D01*
X150915714Y-128436666D01*
X151010952Y-128484285D01*
X151058571Y-128531904D01*
X151106190Y-128627142D01*
X151106190Y-129008095D01*
X151582380Y-127484285D02*
X151582380Y-128055714D01*
X151582380Y-127770000D02*
X150582380Y-127770000D01*
X150725238Y-127865238D01*
X150820476Y-127960476D01*
X150868095Y-128055714D01*
X149185333Y-65730380D02*
X148852000Y-65254190D01*
X148613904Y-65730380D02*
X148613904Y-64730380D01*
X148994857Y-64730380D01*
X149090095Y-64778000D01*
X149137714Y-64825619D01*
X149185333Y-64920857D01*
X149185333Y-65063714D01*
X149137714Y-65158952D01*
X149090095Y-65206571D01*
X148994857Y-65254190D01*
X148613904Y-65254190D01*
X149518666Y-64730380D02*
X150137714Y-64730380D01*
X149804380Y-65111333D01*
X149947238Y-65111333D01*
X150042476Y-65158952D01*
X150090095Y-65206571D01*
X150137714Y-65301809D01*
X150137714Y-65539904D01*
X150090095Y-65635142D01*
X150042476Y-65682761D01*
X149947238Y-65730380D01*
X149661523Y-65730380D01*
X149566285Y-65682761D01*
X149518666Y-65635142D01*
D11*
X155687500Y-49927742D02*
X155687500Y-50402258D01*
X156732500Y-49927742D02*
X156732500Y-50402258D01*
X156957500Y-63229258D02*
X156957500Y-62754742D01*
X158002500Y-63229258D02*
X158002500Y-62754742D01*
X155462500Y-63229258D02*
X155462500Y-62754742D01*
X154417500Y-63229258D02*
X154417500Y-62754742D01*
X135890000Y-118170000D02*
X158810000Y-118170000D01*
X158810000Y-118170000D02*
X158810000Y-115510000D01*
X134620000Y-118170000D02*
X133290000Y-118170000D01*
X133290000Y-118170000D02*
X133290000Y-116840000D01*
X135890000Y-115510000D02*
X158810000Y-115510000D01*
X135890000Y-118170000D02*
X135890000Y-115510000D01*
X110470000Y-129130000D02*
X110470000Y-130130000D01*
X103810000Y-135240000D02*
X103810000Y-40020000D01*
X113470000Y-129130000D02*
X110470000Y-129130000D01*
X102940000Y-47960000D02*
X102940000Y-48560000D01*
X114630000Y-135240000D02*
X103810000Y-135240000D01*
X103810000Y-40020000D02*
X114630000Y-40020000D01*
X103620000Y-48260000D02*
X102940000Y-47960000D01*
X110470000Y-130130000D02*
X104970000Y-130130000D01*
X104970000Y-130130000D02*
X104970000Y-45129000D01*
X104970000Y-45129000D02*
X110470000Y-45129000D01*
X110470000Y-46129000D02*
X113470000Y-46129000D01*
X110470000Y-45129000D02*
X110470000Y-46129000D01*
X102940000Y-48560000D02*
X103620000Y-48260000D01*
X113470000Y-46129000D02*
X113470000Y-129130000D01*
X114630000Y-40020000D02*
X114630000Y-135240000D01*
X150710000Y-52255000D02*
X149010000Y-52255000D01*
X150710000Y-52255000D02*
X150710000Y-54805000D01*
X149010000Y-52255000D02*
X149010000Y-54805000D01*
X156630000Y-123005000D02*
X158330000Y-123005000D01*
X158330000Y-123005000D02*
X158330000Y-120455000D01*
X156630000Y-123005000D02*
X156630000Y-120455000D01*
X158330000Y-52255000D02*
X156630000Y-52255000D01*
X156630000Y-52255000D02*
X156630000Y-54805000D01*
X158330000Y-52255000D02*
X158330000Y-54805000D01*
X154090000Y-52255000D02*
X154090000Y-54805000D01*
X155790000Y-52255000D02*
X155790000Y-54805000D01*
X155790000Y-52255000D02*
X154090000Y-52255000D01*
X151550000Y-123005000D02*
X151550000Y-120455000D01*
X151550000Y-123005000D02*
X153250000Y-123005000D01*
X153250000Y-123005000D02*
X153250000Y-120455000D01*
X151877500Y-63229258D02*
X151877500Y-62754742D01*
X152922500Y-63229258D02*
X152922500Y-62754742D01*
X120245000Y-123610000D02*
X117695000Y-123610000D01*
X120245000Y-125310000D02*
X117695000Y-125310000D01*
X120245000Y-125310000D02*
X120245000Y-123610000D01*
X120245000Y-120230000D02*
X117695000Y-120230000D01*
X120245000Y-118530000D02*
X117695000Y-118530000D01*
X120245000Y-120230000D02*
X120245000Y-118530000D01*
X149010000Y-123005000D02*
X150710000Y-123005000D01*
X149010000Y-123005000D02*
X149010000Y-120455000D01*
X150710000Y-123005000D02*
X150710000Y-120455000D01*
X120245000Y-77050000D02*
X117695000Y-77050000D01*
X120245000Y-77050000D02*
X120245000Y-75350000D01*
X120245000Y-75350000D02*
X117695000Y-75350000D01*
X135890000Y-59750000D02*
X158810000Y-59750000D01*
X133290000Y-59750000D02*
X133290000Y-58420000D01*
X158810000Y-59750000D02*
X158810000Y-57090000D01*
X135890000Y-59750000D02*
X135890000Y-57090000D01*
X134620000Y-59750000D02*
X133290000Y-59750000D01*
X135890000Y-57090000D02*
X158810000Y-57090000D01*
X120245000Y-127850000D02*
X117695000Y-127850000D01*
X120245000Y-127850000D02*
X120245000Y-126150000D01*
X120245000Y-126150000D02*
X117695000Y-126150000D01*
X150607500Y-49927742D02*
X150607500Y-50402258D01*
X151652500Y-49927742D02*
X151652500Y-50402258D01*
X151550000Y-52255000D02*
X151550000Y-54805000D01*
X153250000Y-52255000D02*
X151550000Y-52255000D01*
X153250000Y-52255000D02*
X153250000Y-54805000D01*
X120245000Y-74510000D02*
X117695000Y-74510000D01*
X120245000Y-72810000D02*
X117695000Y-72810000D01*
X120245000Y-74510000D02*
X120245000Y-72810000D01*
X156732500Y-125332258D02*
X156732500Y-124857742D01*
X155687500Y-125332258D02*
X155687500Y-124857742D01*
X154090000Y-123005000D02*
X154090000Y-120455000D01*
X155790000Y-123005000D02*
X155790000Y-120455000D01*
X154090000Y-123005000D02*
X155790000Y-123005000D01*
X120245000Y-122770000D02*
X120245000Y-121070000D01*
X120245000Y-121070000D02*
X117695000Y-121070000D01*
X120245000Y-122770000D02*
X117695000Y-122770000D01*
X151652500Y-125332258D02*
X151652500Y-124857742D01*
X150607500Y-125332258D02*
X150607500Y-124857742D01*
X149337500Y-63229258D02*
X149337500Y-62754742D01*
X150382500Y-63229258D02*
X150382500Y-62754742D01*
M02*
